HIERARCHY
ROOT Hips
{
	OFFSET 0.000000 0.000000 0.000000
	CHANNELS 6 Xposition Yposition Zposition Zrotation Yrotation Xrotation 
	JOINT LHipJoint
	{
		OFFSET 0.000000 0.000000 0.000000
		CHANNELS 3 Zrotation Yrotation Xrotation
		JOINT LeftUpLeg
		{
			OFFSET 1.363060 -1.794630 0.839290
			CHANNELS 3 Zrotation Yrotation Xrotation
			JOINT LeftLeg
			{
				OFFSET 2.448110 -6.726130 0.000000
				CHANNELS 3 Zrotation Yrotation Xrotation
				JOINT LeftFoot
				{
					OFFSET 2.562200 -7.039590 0.000000
					CHANNELS 3 Zrotation Yrotation Xrotation
					JOINT LeftToeBase
					{
						OFFSET 0.157640 -0.433110 2.322550
						CHANNELS 3 Zrotation Yrotation Xrotation
						End Site
						{
							OFFSET 0.000000 0.000000 0.000000
						}
					}
				}
			}
		}
	}
	JOINT RHipJoint
	{
		OFFSET 0.000000 0.000000 0.000000
		CHANNELS 3 Zrotation Yrotation Xrotation
		JOINT RightUpLeg
		{
			OFFSET -1.305520 -1.794630 0.839290
			CHANNELS 3 Zrotation Yrotation Xrotation
			JOINT RightLeg
			{
				OFFSET -2.542530 -6.985550 0.000000
				CHANNELS 3 Zrotation Yrotation Xrotation
				JOINT RightFoot
				{
					OFFSET -2.568260 -7.056230 0.000000
					CHANNELS 3 Zrotation Yrotation Xrotation
					JOINT RightToeBase
					{
						OFFSET -0.164730 -0.452590 2.363150
						CHANNELS 3 Zrotation Yrotation Xrotation
						End Site
						{
							OFFSET 0.000000 0.000000 0.000000
						}
					}
				}
			}
		}
	}
	JOINT LowerBack
	{
		OFFSET 0.000000 0.000000 0.000000
		CHANNELS 3 Zrotation Yrotation Xrotation
		JOINT Spine
		{
			OFFSET 0.028270 2.035590 -0.193380
			CHANNELS 3 Zrotation Yrotation Xrotation
			JOINT Spine1
			{
				OFFSET 0.056720 2.048850 -0.042750
				CHANNELS 3 Zrotation Yrotation Xrotation
				JOINT Neck
				{
					OFFSET 0.000000 0.000000 0.000000
					CHANNELS 3 Zrotation Yrotation Xrotation
					JOINT Neck1
					{
						OFFSET -0.054170 1.746240 0.172020
						CHANNELS 3 Zrotation Yrotation Xrotation
						JOINT Head
						{
							OFFSET 0.104070 1.761360 -0.123970
							CHANNELS 3 Zrotation Yrotation Xrotation
							End Site
							{
								OFFSET 0.000000 0.000000 0.000000
							}
						}
					}
				}
				JOINT LeftShoulder
				{
					OFFSET 0.000000 0.000000 0.000000
					CHANNELS 3 Zrotation Yrotation Xrotation
					JOINT LeftArm
					{
						OFFSET 3.362410 1.200890 -0.311210
						CHANNELS 3 Zrotation Yrotation Xrotation
						JOINT LeftForeArm
						{
							OFFSET 4.983000 -0.000000 -0.000000
							CHANNELS 3 Zrotation Yrotation Xrotation
							JOINT LeftHand
							{
								OFFSET 3.483560 -0.000000 -0.000000
								CHANNELS 3 Zrotation Yrotation Xrotation
								JOINT LeftFingerBase
								{
									OFFSET 0.000000 0.000000 0.000000
									CHANNELS 3 Zrotation Yrotation Xrotation
									JOINT LeftHandIndex1
									{
										OFFSET 0.715260 -0.000000 -0.000000
										CHANNELS 3 Zrotation Yrotation Xrotation
										End Site
										{
											OFFSET 0.000000 0.000000 0.000000
										}
									}
								}
								JOINT LThumb
								{
									OFFSET 0.000000 0.000000 0.000000
									CHANNELS 3 Zrotation Yrotation Xrotation
									End Site
									{
										OFFSET 0.000000 0.000000 0.000000
									}
								}
							}
						}
					}
				}
				JOINT RightShoulder
				{
					OFFSET 0.000000 0.000000 0.000000
					CHANNELS 3 Zrotation Yrotation Xrotation
					JOINT RightArm
					{
						OFFSET -3.136600 1.374050 -0.404650
						CHANNELS 3 Zrotation Yrotation Xrotation
						JOINT RightForeArm
						{
							OFFSET -5.241900 -0.000000 -0.000000
							CHANNELS 3 Zrotation Yrotation Xrotation
							JOINT RightHand
							{
								OFFSET -3.444170 -0.000000 -0.000000
								CHANNELS 3 Zrotation Yrotation Xrotation
								JOINT RightFingerBase
								{
									OFFSET 0.000000 0.000000 0.000000
									CHANNELS 3 Zrotation Yrotation Xrotation
									JOINT RightHandIndex1
									{
										OFFSET -0.622530 -0.000000 -0.000000
										CHANNELS 3 Zrotation Yrotation Xrotation
										End Site
										{
											OFFSET 0.000000 0.000000 0.000000
										}
									}
								}
								JOINT RThumb
								{
									OFFSET 0.000000 0.000000 0.000000
									CHANNELS 3 Zrotation Yrotation Xrotation
									End Site
									{
										OFFSET 0.000000 0.000000 0.000000
									}
								}
							}
						}
					}
				}
			}
		}
	}
}
MOTION
Frames: 8
Frame Time: 0.008333
9.423216 16.997095 -12.431498 5.529956 8.919441 8.711060 0.177573 4.562366 5.239921 -14.499648 8.728173 16.176146 -2.849717 0.039716 6.560659 -1.345574 9.468055 23.744374 1.283659 -7.160227 -20.199034 -2.363273 0.696493 -4.458486 8.248208 8.445472 -41.259266 -1.600089 -15.621578 37.207344 -0.417782 -2.938136 13.422765 -0.458492 4.343104 -12.043952 -6.536416 -5.753186 -2.706993 1.312728 -7.010240 -5.199849 5.938965 -4.639560 7.246769 -10.088358 -1.678659 -17.635823 5.888260 0.159845 7.654084 6.124313 -0.209147 9.726515 -0.921765 -7.388735 -0.337566 -74.904328 -16.244674 45.230361 21.277968 -30.531887 -7.834750 0.401560 1.076941 -9.163016 14.037933 -25.908803 -6.213484 -7.125000 0.000000 0.000000 -9.907735 2.676236 9.580496 0.019699 6.618027 0.526388 75.708331 -20.398105 21.062981 -10.094627 17.806613 -3.104466 2.774890 2.615542 -11.512916 -25.837424 -23.808219 13.348890 7.125000 0.000000 0.000000 0.715450 -58.387694 -0.268923
9.407030 17.002358 -12.274507 5.108889 8.685123 8.547457 -0.027016 4.314783 5.207133 -14.195106 8.805278 13.491078 -2.194276 2.102956 11.859844 -1.352783 9.242521 23.391039 1.052777 -6.515480 -18.290703 -2.236784 0.739802 -4.398097 8.876626 8.481851 -41.009321 -1.736062 -15.736518 37.828187 -0.491575 -2.456783 13.079928 -0.440477 4.258511 -11.805057 -6.121498 -5.626143 -2.751569 1.316347 -6.891299 -5.192068 5.820307 -4.541649 7.261144 -9.960929 -1.662846 -17.667719 5.871619 0.142806 7.691167 6.082740 -0.212642 9.771944 -0.911764 -7.366186 -0.352194 -75.251497 -15.720216 45.117203 21.105264 -30.408160 -7.751099 0.389918 1.088244 -9.031467 14.100587 -26.097698 -6.292051 -7.125000 0.000000 0.000000 -9.876404 2.463309 9.588087 0.040823 6.647905 0.528046 75.863096 -20.040612 20.567126 -9.961704 17.587158 -3.019849 2.867866 2.366157 -10.716172 -26.596440 -22.226751 12.892669 7.125000 0.000000 0.000000 -0.700449 -56.632882 0.185430
9.387085 17.017463 -12.121718 4.754212 8.559752 8.364437 -0.104377 4.184997 5.133644 -13.789177 9.088133 11.841330 -1.629557 3.385563 15.244659 -1.359783 9.434046 23.779637 0.886040 -5.983532 -16.741574 -2.140014 0.738394 -4.312566 9.434486 8.557135 -40.648622 -1.842564 -15.809179 38.304907 -0.525997 -2.114040 12.493485 -0.399680 4.054488 -11.230602 -5.783893 -5.527301 -2.675618 1.316777 -6.799069 -5.192933 5.696302 -4.458505 7.156428 -9.859705 -1.658301 -17.554537 5.888019 0.109478 7.687024 6.070835 -0.221149 9.759253 -0.911803 -7.361711 -0.361836 -75.591972 -15.158503 44.954528 20.864930 -30.205215 -7.629807 0.384363 1.102876 -8.723695 14.156548 -26.255781 -6.360797 -7.125000 0.000000 0.000000 -9.849681 2.278126 9.594768 0.039904 6.690794 0.532786 76.071169 -19.798509 20.171416 -9.908688 17.471432 -2.974197 2.912534 2.180915 -10.063080 -26.951446 -21.112273 12.432954 7.125000 0.000000 0.000000 -1.384122 -55.334884 0.340169
9.366757 17.036316 -11.969467 4.368270 8.475928 8.204613 -0.157367 4.084497 5.052944 -13.320154 9.364504 10.391471 -1.082706 4.482928 18.165944 -1.372124 9.769628 24.380648 0.753449 -5.543464 -15.465613 -2.049659 0.725355 -4.219336 10.021485 8.636937 -40.277353 -1.934037 -15.865490 38.728400 -0.556020 -1.790151 11.851013 -0.353529 3.817026 -10.562816 -5.414434 -5.446895 -2.602660 1.325620 -6.732584 -5.200184 5.592896 -4.388197 7.022375 -9.792005 -1.644929 -17.414684 5.911643 0.098013 7.677822 6.075067 -0.222025 9.734981 -0.911423 -7.360067 -0.372622 -75.928456 -14.586735 44.799751 20.618979 -29.993331 -7.503144 0.379281 1.115364 -8.426948 14.191704 -26.361435 -6.407724 -7.125000 0.000000 0.000000 -9.831894 2.150836 9.599882 0.037864 6.735306 0.537697 76.240438 -19.598469 19.908504 -9.899349 17.413329 -2.947741 2.941001 2.029435 -9.533516 -27.175684 -20.205021 12.014328 7.125000 0.000000 0.000000 -1.837480 -54.259461 0.418113
9.347940 17.063688 -11.816029 3.783162 8.486670 8.166816 -0.209503 4.015291 4.974633 -12.652247 9.433951 8.955650 -0.538689 5.413020 20.635015 -1.408885 10.399211 25.305638 0.720492 -5.423083 -15.119531 -1.962780 0.698113 -4.112852 10.801600 8.703679 -39.953655 -1.982730 -15.884070 39.034654 -0.600037 -1.432258 11.164406 -0.302738 3.530834 -9.760935 -4.833704 -5.425836 -2.647261 1.375393 -6.759902 -5.228962 5.587594 -4.363404 6.857911 -9.853842 -1.581766 -17.278947 5.939552 0.199829 7.681227 6.126943 -0.183946 9.708290 -0.900487 -7.355687 -0.392907 -76.252603 -14.001472 44.723539 20.405874 -29.809215 -7.384581 0.371098 1.115251 -8.332259 14.138208 -26.255727 -6.364102 -7.125000 0.000000 0.000000 -9.850692 2.262361 9.598677 0.049752 6.775959 0.540722 76.187600 -19.489784 20.161899 -10.019302 17.527259 -2.974789 2.937619 1.975849 -9.440655 -27.154970 -19.835398 11.785194 7.125000 0.000000 0.000000 -1.877246 -53.800107 0.406003
9.332343 17.090339 -11.661460 3.143986 8.468886 8.118916 -0.241347 3.950928 4.882076 -11.989807 9.460643 7.636398 0.030066 6.301613 23.037357 -1.481304 11.112262 26.076948 0.684867 -5.289678 -14.736890 -1.880364 0.665730 -4.002967 11.655361 8.766200 -39.601620 -2.013128 -15.879825 39.277579 -0.641685 -1.098999 10.482705 -0.283735 3.425457 -9.465570 -4.191237 -5.391281 -2.723490 1.433765 -6.770202 -5.250378 5.605483 -4.334092 6.769995 -9.935319 -1.532295 -17.253847 5.962345 0.297005 7.715550 6.180419 -0.151077 9.733471 -0.880888 -7.343495 -0.419150 -76.674740 -13.458804 44.571224 20.179302 -29.615679 -7.261791 0.367339 1.114065 -8.168622 14.028171 -26.152906 -6.292551 -7.125000 0.000000 0.000000 -9.905077 2.380538 9.631772 0.073175 6.808747 0.542725 76.054434 -19.297587 20.481373 -10.153177 17.660617 -3.011842 2.930457 1.955677 -9.561827 -27.126449 -19.626389 11.649040 7.125000 0.000000 0.000000 -1.882367 -53.538452 0.395367
9.319710 17.116328 -11.505851 2.455069 8.424855 8.061722 -0.254522 3.891021 4.776412 -11.332394 9.447999 6.424390 0.621580 7.152027 25.378310 -1.586528 11.902103 26.706874 0.646789 -5.144292 -14.320616 -1.802054 0.628616 -3.889953 12.576877 8.824838 -39.223516 -2.026696 -15.854582 39.462240 -0.681153 -0.788405 9.805516 -0.293977 3.486431 -9.636201 -3.491971 -5.344309 -2.828815 1.500047 -6.764844 -5.265022 5.644706 -4.300623 6.752504 -10.034865 -1.495421 -17.330532 5.980432 0.389913 7.778317 6.235368 -0.123000 9.806374 -0.853318 -7.324116 -0.450877 -77.187028 -12.955322 44.348894 19.940337 -29.413477 -7.135111 0.367649 1.111895 -7.941552 13.866118 -26.052739 -6.195306 -7.125000 0.000000 0.000000 -9.992200 2.504836 9.696421 0.107210 6.834299 0.543790 75.847365 -19.028559 20.861639 -10.299860 17.811847 -3.058101 2.919816 1.966245 -9.879909 -27.090744 -19.565145 11.598429 7.125000 0.000000 0.000000 -1.855615 -53.458679 0.386089
9.306227 17.143282 -11.362083 1.979341 8.495374 7.867720 -0.222125 3.809725 4.641079 -10.927508 9.232794 5.505330 1.219678 7.953472 27.702039 -1.744050 12.600589 26.778768 0.573430 -4.841183 -13.457734 -1.727386 0.596421 -3.775799 13.294928 8.710015 -38.678254 -2.020732 -15.780880 39.515487 -0.710523 -0.575284 9.259469 -0.308734 3.571427 -9.874072 -3.028576 -5.322544 -2.705282 1.547102 -6.774066 -5.265252 5.670352 -4.280121 6.720493 -10.093594 -1.509685 -17.395155 6.020785 0.400541 7.802346 6.282431 -0.121850 9.865892 -0.834990 -7.309361 -0.478212 -77.775720 -12.479626 43.881733 19.647130 -29.152550 -6.991226 0.386438 1.114183 -7.381627 13.593491 -26.039707 -6.059356 -7.125000 0.000000 0.000000 -10.158755 2.552970 9.854356 0.125466 6.874644 0.552616 75.747295 -18.673567 21.011152 -10.406359 17.905955 -3.100306 2.923295 1.990216 -10.190409 -27.186071 -19.672805 11.704660 7.125000 0.000000 0.000000 -1.953798 -53.599513 0.413595
